<svg xmlns="http://www.w3.org/2000/svg" xmlns:xlink="http://www.w3.org/1999/xlink" width="301" zoomAndPan="magnify" viewBox="0 0 225.75 123.000003" height="164" preserveAspectRatio="xMidYMid meet" version="1.2"><defs><clipPath id="6d2c0e5558"><path d="M 0.785156 0 L 224.714844 0 L 224.714844 122.007812 L 0.785156 122.007812 Z M 0.785156 0 "/></clipPath><clipPath id="d9f8446f09"><path d="M 0.808594 0 L 84.699219 0 L 84.699219 106.257812 L 0.808594 106.257812 Z M 0.808594 0 "/></clipPath><clipPath id="63b9cfa698"><path d="M 135.511719 53.203125 L 223.367188 53.203125 L 223.367188 94.246094 L 135.511719 94.246094 Z M 135.511719 53.203125 "/></clipPath><clipPath id="949c18cb12"><path d="M 142.953125 53.203125 L 215.910156 53.203125 C 217.882812 53.203125 219.773438 53.988281 221.171875 55.382812 C 222.566406 56.777344 223.347656 58.671875 223.347656 60.644531 L 223.347656 86.804688 C 223.347656 88.777344 222.566406 90.671875 221.171875 92.066406 C 219.773438 93.460938 217.882812 94.246094 215.910156 94.246094 L 142.953125 94.246094 C 140.980469 94.246094 139.085938 93.460938 137.691406 92.066406 C 136.296875 90.671875 135.511719 88.777344 135.511719 86.804688 L 135.511719 60.644531 C 135.511719 58.671875 136.296875 56.777344 137.691406 55.382812 C 139.085938 53.988281 140.980469 53.203125 142.953125 53.203125 Z M 142.953125 53.203125 "/></clipPath></defs><g id="6c7a2d0d3d"><g clip-rule="nonzero" clip-path="url(#6d2c0e5558)"><path style=" stroke:none;fill-rule:nonzero;fill:#ffffff;fill-opacity:1;" d="M 0.785156 0 L 224.714844 0 L 224.714844 122.007812 L 0.785156 122.007812 Z M 0.785156 0 "/></g><g clip-rule="nonzero" clip-path="url(#d9f8446f09)"><path style=" stroke:none;fill-rule:evenodd;fill:#9333ea;fill-opacity:1;" d="M 17.359375 6.785156 L 23.945312 19.863281 L 31.113281 34.097656 L 39.324219 33.089844 L 55.164062 31.148438 L 60.4375 20.679688 L 67.023438 7.601562 C 65.84375 7.015625 65.03125 5.800781 65.03125 4.394531 C 65.03125 2.417969 66.636719 0.8125 68.609375 0.8125 C 70.585938 0.8125 72.191406 2.417969 72.191406 4.394531 C 72.191406 6.367188 70.585938 7.972656 68.609375 7.972656 C 68.230469 7.972656 67.859375 7.910156 67.515625 7.800781 L 62.320312 21.050781 L 58.519531 30.738281 L 67.359375 29.652344 C 73.199219 28.9375 78.566406 30.996094 82.414062 34.902344 C 83.257812 35.753906 84.019531 36.691406 84.699219 37.703125 C 82.566406 37.148438 80.289062 36.984375 77.933594 37.273438 C 68.160156 38.472656 58.820312 39.621094 49.894531 40.714844 C 41.34375 41.761719 33.140625 42.769531 25.269531 43.734375 C 20.867188 44.273438 17.121094 47.003906 14.648438 50.886719 C 12.234375 54.671875 11.015625 59.558594 11.480469 64.671875 C 11.996094 70.335938 12.5 75.902344 12.996094 81.351562 C 13.484375 86.714844 13.960938 91.980469 14.433594 97.148438 C 14.738281 100.503906 15.863281 103.628906 17.550781 106.257812 C 14.28125 105.605469 11.285156 103.773438 8.941406 101.199219 C 6.179688 98.167969 4.269531 94.054688 3.859375 89.523438 C 3.390625 84.359375 2.910156 79.089844 2.421875 73.730469 C 1.925781 68.28125 1.421875 62.714844 0.90625 57.046875 C 0.441406 51.9375 1.664062 47.050781 4.074219 43.265625 C 6.550781 39.382812 10.292969 36.648438 14.699219 36.109375 L 27.667969 34.519531 L 22.0625 20.234375 L 16.867188 6.988281 C 16.523438 7.097656 16.152344 7.15625 15.773438 7.15625 C 13.796875 7.15625 12.191406 5.554688 12.191406 3.578125 C 12.191406 1.601562 13.796875 0 15.773438 0 C 17.75 0 19.351562 1.601562 19.351562 3.578125 C 19.351562 4.984375 18.539062 6.203125 17.359375 6.785156 "/></g><g style="fill:#9333ea;fill-opacity:1;"><g transform="translate(23.137273, 92.26819)"><path style="stroke:none" d="M 3.8125 -38.109375 L 14.59375 -38.109375 L 14.59375 -8.546875 L 32.765625 -8.546875 L 32.765625 0 L 3.8125 0 Z M 3.8125 -38.109375 "/></g></g><g style="fill:#9333ea;fill-opacity:1;"><g transform="translate(52.260044, 92.26819)"><path style="stroke:none" d="M 34.40625 -8.328125 L 34.40625 0 L 3.8125 0 L 3.8125 -38.109375 L 33.703125 -38.109375 L 33.703125 -29.78125 L 14.484375 -29.78125 L 14.484375 -23.359375 L 31.40625 -23.359375 L 31.40625 -15.296875 L 14.484375 -15.296875 L 14.484375 -8.328125 Z M 34.40625 -8.328125 "/></g></g><g style="fill:#9333ea;fill-opacity:1;"><g transform="translate(84.757877, 92.26819)"><path style="stroke:none" d="M 23.03125 0.765625 C 19 0.765625 15.375 -0.0859375 12.15625 -1.796875 C 8.945312 -3.503906 6.425781 -5.863281 4.59375 -8.875 C 2.757812 -11.882812 1.84375 -15.273438 1.84375 -19.046875 C 1.84375 -22.828125 2.757812 -26.222656 4.59375 -29.234375 C 6.425781 -32.242188 8.945312 -34.601562 12.15625 -36.3125 C 15.375 -38.019531 19 -38.875 23.03125 -38.875 C 27.050781 -38.875 30.664062 -38.019531 33.875 -36.3125 C 37.09375 -34.601562 39.617188 -32.242188 41.453125 -29.234375 C 43.285156 -26.222656 44.203125 -22.828125 44.203125 -19.046875 C 44.203125 -15.273438 43.285156 -11.882812 41.453125 -8.875 C 39.617188 -5.863281 37.09375 -3.503906 33.875 -1.796875 C 30.664062 -0.0859375 27.050781 0.765625 23.03125 0.765625 Z M 23.03125 -8.171875 C 24.945312 -8.171875 26.6875 -8.625 28.25 -9.53125 C 29.8125 -10.4375 31.046875 -11.710938 31.953125 -13.359375 C 32.859375 -15.015625 33.3125 -16.910156 33.3125 -19.046875 C 33.3125 -21.191406 32.859375 -23.085938 31.953125 -24.734375 C 31.046875 -26.390625 29.8125 -27.671875 28.25 -28.578125 C 26.6875 -29.484375 24.945312 -29.9375 23.03125 -29.9375 C 21.101562 -29.9375 19.359375 -29.484375 17.796875 -28.578125 C 16.234375 -27.671875 15 -26.390625 14.09375 -24.734375 C 13.1875 -23.085938 12.734375 -21.191406 12.734375 -19.046875 C 12.734375 -16.910156 13.1875 -15.015625 14.09375 -13.359375 C 15 -11.710938 16.234375 -10.4375 17.796875 -9.53125 C 19.359375 -8.625 21.101562 -8.171875 23.03125 -8.171875 Z M 23.03125 -8.171875 "/></g></g><g clip-rule="nonzero" clip-path="url(#63b9cfa698)"><g clip-rule="nonzero" clip-path="url(#949c18cb12)"><path style=" stroke:none;fill-rule:nonzero;fill:#30d2c0;fill-opacity:1;" d="M 135.511719 53.203125 L 223.367188 53.203125 L 223.367188 94.246094 L 135.511719 94.246094 Z M 135.511719 53.203125 "/></g></g><g style="fill:#ffffff;fill-opacity:1;"><g transform="translate(142.012203, 81.42431)"><path style="stroke:none" d="M 16.203125 0 L 16.15625 -8.5625 L 12 -1.59375 L 9.96875 -1.59375 L 5.84375 -8.328125 L 5.84375 0 L 1.609375 0 L 1.609375 -16.15625 L 5.375 -16.15625 L 11.046875 -6.828125 L 16.59375 -16.15625 L 20.359375 -16.15625 L 20.40625 0 Z M 16.203125 0 "/></g></g><g style="fill:#ffffff;fill-opacity:1;"><g transform="translate(162.293624, 81.42431)"><path style="stroke:none" d="M 14.578125 -3.53125 L 14.578125 0 L 1.609375 0 L 1.609375 -16.15625 L 14.28125 -16.15625 L 14.28125 -12.625 L 6.140625 -12.625 L 6.140625 -9.90625 L 13.3125 -9.90625 L 13.3125 -6.484375 L 6.140625 -6.484375 L 6.140625 -3.53125 Z M 14.578125 -3.53125 "/></g></g><g style="fill:#ffffff;fill-opacity:1;"><g transform="translate(176.068149, 81.42431)"><path style="stroke:none" d="M 1.609375 -16.15625 L 9.25 -16.15625 C 11.019531 -16.15625 12.585938 -15.820312 13.953125 -15.15625 C 15.328125 -14.5 16.390625 -13.5625 17.140625 -12.34375 C 17.898438 -11.132812 18.28125 -9.710938 18.28125 -8.078125 C 18.28125 -6.441406 17.898438 -5.015625 17.140625 -3.796875 C 16.390625 -2.585938 15.328125 -1.648438 13.953125 -0.984375 C 12.585938 -0.328125 11.019531 0 9.25 0 L 1.609375 0 Z M 9.0625 -3.640625 C 10.445312 -3.640625 11.554688 -4.03125 12.390625 -4.8125 C 13.234375 -5.601562 13.65625 -6.691406 13.65625 -8.078125 C 13.65625 -9.460938 13.234375 -10.546875 12.390625 -11.328125 C 11.554688 -12.117188 10.445312 -12.515625 9.0625 -12.515625 L 6.1875 -12.515625 L 6.1875 -3.640625 Z M 9.0625 -3.640625 "/></g></g><g style="fill:#ffffff;fill-opacity:1;"><g transform="translate(193.396082, 81.42431)"><path style="stroke:none" d="M 1.609375 -16.15625 L 6.1875 -16.15625 L 6.1875 0 L 1.609375 0 Z M 1.609375 -16.15625 "/></g></g><g style="fill:#ffffff;fill-opacity:1;"><g transform="translate(199.486913, 81.42431)"><path style="stroke:none" d="M 12.4375 -3.140625 L 5.609375 -3.140625 L 4.34375 0 L -0.328125 0 L 6.8125 -16.15625 L 11.3125 -16.15625 L 18.46875 0 L 13.703125 0 Z M 11.09375 -6.515625 L 9.03125 -11.671875 L 6.953125 -6.515625 Z M 11.09375 -6.515625 "/></g></g></g></svg>