<?xml version="1.0" encoding="utf-8"?>
<!-- Generator: Adobe Illustrator 24.0.2, SVG Export Plug-In . SVG Version: 6.00 Build 0)  -->
<svg version="1.0" id="Layer_1" xmlns="http://www.w3.org/2000/svg" xmlns:xlink="http://www.w3.org/1999/xlink" x="0px" y="0px"
	 viewBox="0 0 300 280" enable-background="new 0 0 300 280" xml:space="preserve">
<g>
	<g enable-background="new    ">
		<g>
			<g>
				
					<linearGradient id="SVGID_2_" gradientUnits="userSpaceOnUse" x1="150.0225" y1="216.1708" x2="150.0225" y2="63.5792" gradientTransform="matrix(1 0 0 -1 -0.0225 279.875)">
					<stop  offset="0" style="stop-color:#87C76C"/>
					<stop  offset="1" style="stop-color:#34B44A"/>
				</linearGradient>
				<path id="SVGID_1_" fill="url(#SVGID_2_)" d="M226.28,177.57c0,0.84-0.03,2.65-0.08,4.05c-0.12,3.42-0.39,7.84-0.8,9.86
					c-0.62,3.03-1.55,5.88-2.76,8.26c-1.44,2.81-3.27,5.33-5.45,7.5c-2.17,2.17-4.69,4-7.5,5.43c-2.39,1.22-5.26,2.15-8.31,2.76
					c-1.99,0.4-6.38,0.67-9.78,0.79c-1.4,0.05-3.21,0.08-4.05,0.08l-75.13-0.01c-0.84,0-2.65-0.03-4.05-0.08
					c-3.42-0.12-7.84-0.39-9.86-0.81c-3.03-0.62-5.88-1.55-8.26-2.76c-2.81-1.44-5.33-3.27-7.5-5.45c-2.17-2.17-4-4.69-5.43-7.5
					c-1.22-2.39-2.15-5.26-2.76-8.31c-0.4-1.99-0.67-6.38-0.79-9.78c-0.05-1.4-0.07-3.21-0.07-4.05l0.01-75.13
					c0-0.84,0.03-2.65,0.08-4.05c0.12-3.42,0.39-7.84,0.8-9.86c0.62-3.03,1.55-5.88,2.76-8.26c1.44-2.81,3.27-5.33,5.45-7.5
					c2.17-2.17,4.69-4,7.5-5.43c2.39-1.22,5.26-2.15,8.31-2.76c1.99-0.4,6.38-0.67,9.78-0.79c1.4-0.05,3.21-0.08,4.05-0.08
					l75.13,0.01c0.84,0,2.65,0.03,4.05,0.08c3.42,0.12,7.84,0.39,9.86,0.81c3.03,0.62,5.88,1.55,8.26,2.76
					c2.81,1.44,5.33,3.27,7.5,5.45c2.17,2.17,4,4.69,5.43,7.5c1.22,2.39,2.15,5.26,2.76,8.31c0.4,1.99,0.67,6.38,0.79,9.78
					c0.05,1.4,0.08,3.21,0.08,4.05L226.28,177.57z"/>
			</g>
		</g>
	</g>
	<g id="logo">
		<g>
			<g>
				<path fill="#FFFFFF" d="M190.43,99.8c-10.33-10.34-24.07-16.04-38.71-16.04c-30.16,0-54.71,24.54-54.72,54.7
					c0,9.64,2.52,19.05,7.3,27.35l-7.76,28.35l29.01-7.61c7.99,4.36,16.99,6.65,26.15,6.66h0.02c0,0,0,0,0,0
					c30.16,0,54.71-24.54,54.72-54.7C206.44,123.89,200.76,110.14,190.43,99.8z M151.72,183.97h-0.02c-8.16,0-16.17-2.2-23.15-6.34
					l-1.66-0.99l-17.21,4.51l4.59-16.78l-1.08-1.72c-4.55-7.24-6.96-15.61-6.95-24.2C106.25,113.4,126.65,93,151.74,93
					c12.15,0,23.57,4.74,32.15,13.33c8.59,8.59,13.31,20.02,13.31,32.16C197.19,163.57,176.79,183.97,151.72,183.97z M176.67,149.91
					c-1.37-0.68-8.09-3.99-9.34-4.45c-1.25-0.46-2.16-0.68-3.08,0.68c-0.91,1.37-3.53,4.45-4.33,5.36c-0.8,0.91-1.59,1.03-2.96,0.34
					c-1.37-0.68-5.77-2.13-10.99-6.78c-4.06-3.62-6.81-8.1-7.61-9.47c-0.8-1.37-0.08-2.11,0.6-2.79c0.62-0.61,1.37-1.6,2.05-2.39
					c0.68-0.8,0.91-1.37,1.37-2.28c0.46-0.91,0.23-1.71-0.11-2.39c-0.34-0.68-3.08-7.41-4.22-10.15c-1.11-2.67-2.24-2.3-3.08-2.35
					c-0.8-0.04-1.71-0.05-2.62-0.05c-0.91,0-2.39,0.34-3.65,1.71c-1.25,1.37-4.79,4.68-4.79,11.4c0,6.73,4.9,13.23,5.58,14.14
					c0.68,0.91,9.64,14.72,23.36,20.64c3.26,1.41,5.81,2.25,7.79,2.88c3.28,1.04,6.26,0.89,8.61,0.54c2.63-0.39,8.09-3.31,9.23-6.5
					c1.14-3.19,1.14-5.93,0.8-6.5C178.94,150.94,178.03,150.6,176.67,149.91z"/>
			</g>
		</g>
	</g>
</g>
</svg>
